<svg xmlns="http://www.w3.org/2000/svg" width="14" height="19">
  <path fill="#FA8E04" fill-rule="evenodd" d="M0 2.288193C0 1.0244589 1.02945343 0 2.2805005 0h9.438999C12.9789851 0 14 1.021741 14 2.288193v15.2023377c0 1.2637341-.8583374 1.7277232-1.9127808 1.0392018l-3.17443844-2.0728177c-1.05639964-.6897988-2.77111816-.6885214-3.82556152 0l-3.17443848 2.0728177C.85638112 19.2195313 0 18.7569827 0 17.4905307V2.288193zm8.21666667 4.98675586L7 3.99 5.78333333 7.27494886 2 7.32255682 5.025 9.4014375 3.90833333 12.718125 7 10.7185909l3.0916667 1.9995341L8.975 9.4014375 12 7.32255682l-3.78333333-.04760796z"/>
</svg>
